<svg width="180" height="164" viewBox="0 0 180 164" fill="none" xmlns="http://www.w3.org/2000/svg">
<path d="M7.25962 60.6722H25.2717V52.6592H23.5595C13.8344 52.6592 4.45165 45.1941 4.45165 32.8665C4.45165 20.5388 13.7659 13.2792 23.491 13.2792H42.2564C51.9816 13.2792 61.2958 20.5388 61.2958 32.8665C61.2958 45.1941 51.9816 52.6592 42.2564 52.6592H40.4073V60.6722H58.4879C61.1588 60.6722 63.2819 62.0419 63.2819 64.6444V69.507C63.2819 72.1095 61.1588 73.4792 58.4879 73.4792H7.25962C4.58863 73.4792 2.46553 72.1095 2.46553 69.507V64.6444C2.46553 62.0419 4.58863 60.6722 7.25962 60.6722ZM26.025 39.9891H39.7224C43.1468 39.9891 46.2972 37.729 46.2972 32.935C46.2972 28.2094 43.1468 25.9493 39.7224 25.9493H26.025C22.5322 25.9493 19.4503 28.2778 19.4503 32.935C19.4503 37.3181 22.5322 39.9891 26.025 39.9891ZM121.904 75.5338H77.6615C73.4153 75.5338 71.4292 73.6847 71.4292 70.1234V60.8776C71.4292 58.5491 72.388 56.8369 75.333 56.8369H110.604V55.8781H75.8809C73.0044 55.8781 71.4292 54.9878 71.4292 52.6592V49.9882C71.4292 47.6596 73.0044 46.7693 75.8809 46.7693H120.123C123.685 46.7693 125.123 48.0706 125.123 50.81V61.2885C125.123 63.5486 124.438 65.4663 120.945 65.4663H85.9484V66.4251H121.904C124.781 66.4251 126.356 67.3154 126.356 69.644V72.3149C126.356 74.6435 124.781 75.5338 121.904 75.5338ZM72.662 35.4005H124.575C127.246 35.4005 129.369 36.6332 129.369 38.9618V42.2492C129.369 44.5777 127.246 45.8105 124.575 45.8105H72.662C69.991 45.8105 67.8679 44.5777 67.8679 42.2492V38.9618C67.8679 36.6332 69.991 35.4005 72.662 35.4005ZM121.356 34.3047H78.6888C74.0317 34.3047 71.3607 31.8392 71.3607 27.3875V17.7308C71.3607 14.375 73.0729 12.9368 76.7027 12.9368H81.2228C84.8527 12.9368 86.3594 14.3065 86.3594 17.6624V21.6346C86.3594 23.5522 86.4963 23.8262 88.414 23.8262H121.356C124.027 23.8262 126.15 24.8535 126.15 27.456V30.6749C126.15 33.2774 124.027 34.3047 121.356 34.3047Z" fill="#494949"/>
<path d="M47.9407 121.315V118.233H41.503C41.2975 121.178 39.4484 122.616 36.5719 122.616H33.0791C29.8602 122.616 27.9426 121.521 27.6001 118.918C25.9564 121.384 22.6691 122.616 19.8611 122.616H10.4784C6.50614 122.616 3.5612 120.082 3.5612 115.494V98.9885C3.5612 95.1532 7.25949 92.8246 10.4099 92.8246H35.6131C38.6265 92.8246 40.5442 93.9889 41.2975 96.249H47.9407C48.1462 93.3725 49.8584 92.0028 53.2827 92.0028H57.118C60.7478 92.0028 62.46 93.8519 62.46 97.2078V120.288C62.46 123.644 60.7478 125.561 57.118 125.561H53.2827C49.6529 125.561 47.9407 124.671 47.9407 121.315ZM12.6015 128.643H26.9837V127.205C26.9837 123.986 28.285 123.438 31.9148 123.438H38.695C42.3248 123.438 43.6261 123.986 43.6261 127.205V128.643H57.8713C60.5423 128.643 62.46 129.945 62.46 131.999V136.725C62.46 138.848 60.5423 140.149 57.8713 140.149H46.2971C48.6256 142.272 52.7348 143.916 59.0356 143.916C61.7751 143.916 63.4188 145.423 63.4188 147.82V151.312C63.4188 153.641 61.7751 155.079 59.1726 155.148C51.2966 155.353 39.6538 153.162 35.3391 146.792C30.956 153.162 19.2447 155.353 11.4372 155.079C8.83469 154.942 7.19101 153.573 7.19101 151.244V147.751C7.19101 145.354 8.83469 143.847 11.5742 143.847C18.0119 143.847 22.1212 142.204 24.3812 140.149H12.6015C9.93049 140.149 8.01285 138.848 8.01285 136.725V131.999C8.01285 129.945 9.93049 128.643 12.6015 128.643ZM17.9435 103.783V110.015C17.9435 111.385 18.2174 111.659 19.5187 111.659H23.3539C24.8606 111.659 26.5728 110.7 27.5316 109.398V103.783H17.9435ZM41.5715 106.659V107.823H47.9407V106.659H41.5715ZM76.892 128.027C72.9198 128.027 69.9748 124.945 69.9748 120.356V97.8927C69.9748 94.5368 71.687 92.6877 75.3168 92.6877H79.0151C82.6449 92.6877 84.3571 94.5368 84.3571 97.8927V101.454H93.9452V97.8927C93.9452 94.5368 95.6574 92.6877 99.2872 92.6877H102.986C106.615 92.6877 108.328 94.5368 108.328 97.8927V99.0569H114.354V97.2078C114.354 93.8519 116.067 92.0028 119.696 92.0028H123.532C127.161 92.0028 128.874 93.8519 128.874 97.2078V123.712C128.874 127.068 127.161 128.986 123.532 128.986H119.696C116.067 128.986 114.354 127.753 114.354 124.397V122.548H108.328V122.959C108.328 126.315 106.067 128.027 102.986 128.027H99.4927C96.2738 128.027 94.4247 126.931 94.0137 124.329C92.37 126.794 89.0827 128.027 86.2747 128.027H76.892ZM129.49 142.546C129.49 150.628 123.6 155.764 114.423 155.764H89.3566C80.1794 155.764 74.221 150.628 74.221 142.546C74.221 134.533 80.1109 129.534 89.2881 129.534H114.423C123.6 129.534 129.49 134.533 129.49 142.546ZM92.644 144.943H111.067C113.053 144.943 114.628 144.395 114.628 142.615C114.628 140.902 113.053 140.355 111.067 140.355H92.644C90.5894 140.355 89.0827 140.902 89.0827 142.615C89.0827 144.327 90.5894 144.943 92.644 144.943ZM89.7675 116.59C91.2743 116.59 92.9864 115.836 93.9452 114.672V112.891H84.3571V114.946C84.3571 116.316 84.631 116.59 85.9323 116.59H89.7675ZM108.328 109.809V111.796H114.354V109.809H108.328ZM162.413 131.999V132.958C162.413 134.807 161.66 135.971 159.195 135.971H151.661C149.059 135.971 148.237 134.602 148.237 132.41V130.972C148.237 127.137 150.223 123.37 153.921 119.808C157.414 116.453 162.071 113.234 162.071 108.508C162.071 104.741 159.4 102.824 155.633 103.235C152.551 103.577 149.675 105.426 149.675 110.426C149.675 112.617 148.853 114.124 146.319 114.124H139.676C137.416 114.124 136.046 112.96 136.046 110.357C135.978 96.112 147.757 90.2906 159.742 91.5234C169.879 92.5507 176.179 98.92 176.179 107.823C176.179 113.987 172.55 118.576 168.029 122.822C164.674 125.972 162.413 128.232 162.413 131.999ZM163.03 143.779V148.641C163.03 151.997 161.866 153.367 158.236 153.367H152.825C149.195 153.367 148.031 151.997 148.031 148.641V143.779C148.031 140.423 149.195 139.053 152.825 139.053H158.236C161.866 139.053 163.03 140.423 163.03 143.779Z" fill="#494949"/>
<g filter="url(#filter0_d_148_1052)">
<path d="M163.145 35.0758L160.748 32.1154C160.201 31.4385 159.869 30.6533 159.783 29.8335L157.942 12.0514C158.293 11.8985 158.537 11.5492 158.537 11.1436L158.537 6.3921C158.537 5.84507 158.094 5.40195 157.546 5.40194L149.585 5.40176C149.038 5.40175 148.594 5.84485 148.594 6.39188L148.594 11.1434C148.594 11.5013 148.785 11.8131 149.069 11.9877L147.221 29.826C147.19 30.1378 147.122 30.4437 147.019 30.7411C146.917 31.0384 146.781 31.3271 146.613 31.6027C146.501 31.786 146.375 31.9636 146.235 32.1339L143.837 35.0537C143.636 35.2976 143.447 35.5488 143.269 35.8042C143.091 36.0597 142.927 36.3209 142.774 36.5865C142.236 37.516 141.848 38.5018 141.618 39.5179C141.453 40.2439 141.369 40.9844 141.369 41.732L141.369 70.7909C141.369 73.7252 144.109 76.1039 147.489 76.104L159.442 76.1042C162.822 76.1043 165.562 73.7257 165.562 70.7914L165.563 41.6907C165.563 39.3279 164.721 37.0215 163.146 35.0772L163.145 35.0758Z" fill="white"/>
<path d="M159.211 80.3324L147.287 80.3321C141.537 80.332 136.857 76.0082 136.857 70.6933L136.858 41.6477C136.858 40.5844 136.978 39.5183 137.214 38.4781C137.54 37.0383 138.087 35.6476 138.84 34.342C139.051 33.9741 139.282 33.6091 139.526 33.2586C139.768 32.908 140.029 32.5617 140.302 32.2285L142.695 29.31C142.706 29.2956 142.716 29.2826 142.724 29.2696L144.41 12.9644C144.187 12.3714 144.067 11.7338 144.067 11.0745L144.067 6.32515C144.067 3.39217 146.451 1.00746 149.379 1.00752L157.322 1.0077C160.252 1.00776 162.634 3.39402 162.634 6.32555L162.634 11.0749C162.634 11.8236 162.477 12.5464 162.188 13.2057L163.85 29.2773C163.855 29.2859 163.863 29.2989 163.877 29.3148L166.268 32.2738C168.474 35.0048 169.64 38.2321 169.64 41.6066L169.64 70.694C169.64 76.0089 164.961 80.3325 159.21 80.3324L159.211 80.3324ZM153.288 11.1771L151.322 30.1917C151.257 30.825 151.117 31.454 150.911 32.0614C150.708 32.6558 150.437 33.2314 150.107 33.7738C149.889 34.1302 149.645 34.4735 149.38 34.7981L146.988 37.7166C146.863 37.8695 146.743 38.0282 146.633 38.1869C146.525 38.3427 146.423 38.5043 146.329 38.6659C146.011 39.2184 145.782 39.7984 145.648 40.3899C145.554 40.8039 145.506 41.2252 145.506 41.645L145.506 70.6906C145.506 71.0368 146.183 71.6731 147.289 71.6731L159.213 71.6734C160.318 71.6734 160.996 71.0372 160.996 70.6909L160.996 41.6035C160.996 40.233 160.495 38.8869 159.548 37.714L157.157 34.755C156.083 33.4263 155.426 31.8508 155.256 30.1975L153.289 11.1757L153.288 11.1771Z" fill="white"/>
</g>
<path d="M159.581 29.6638L157.628 10.8643L148.971 10.8642L147.02 29.6563C146.933 30.4839 146.593 31.277 146.033 31.9578L143.636 34.8696C142.029 36.8213 141.167 39.1458 141.167 41.528L141.167 70.5064C141.167 73.4327 143.907 75.8048 147.286 75.8048L159.236 75.8051C162.616 75.8051 165.356 73.4332 165.356 70.5069L165.356 41.4867C165.356 39.1305 164.514 36.8304 162.94 34.8916L160.544 31.9394C159.996 31.2643 159.664 30.4813 159.579 29.6638L159.581 29.6638Z" fill="#B1EDD1"/>
<path d="M147.518 66.7718L147.518 40.0777C147.518 40.0777 147.518 36.9452 150.675 35.0805L152.761 10.4628L149.094 10.8771L147.139 29.6631C147.052 30.4904 146.712 31.2832 146.15 31.9638L143.748 34.8746C142.138 36.8257 141.274 39.1495 141.274 41.5308L141.274 70.4998C141.274 73.425 144.02 75.7964 147.406 75.7964L150.675 75.7965C150.675 75.7965 147.518 74.8151 147.518 66.7703L147.518 66.7718Z" fill="#00AD6A"/>
<path d="M157.265 5.20592L149.393 5.2058C148.852 5.20579 148.413 5.64319 148.413 6.18276L148.413 10.8726C148.413 11.4122 148.852 11.8496 149.393 11.8496L157.265 11.8497C157.806 11.8497 158.244 11.4123 158.244 10.8727L158.244 6.18292C158.244 5.64334 157.806 5.20593 157.265 5.20592Z" fill="#17965F"/>
<defs>
<filter id="filter0_d_148_1052" x="136.569" y="0.719162" width="35.6663" height="82.2085" filterUnits="userSpaceOnUse" color-interpolation-filters="sRGB">
<feFlood flood-opacity="0" result="BackgroundImageFix"/>
<feColorMatrix in="SourceAlpha" type="matrix" values="0 0 0 0 0 0 0 0 0 0 0 0 0 0 0 0 0 0 127 0" result="hardAlpha"/>
<feOffset dx="1.15344" dy="1.15344"/>
<feGaussianBlur stdDeviation="0.720902"/>
<feComposite in2="hardAlpha" operator="out"/>
<feColorMatrix type="matrix" values="0 0 0 0 0 0 0 0 0 0 0 0 0 0 0 0 0 0 0.25 0"/>
<feBlend mode="normal" in2="BackgroundImageFix" result="effect1_dropShadow_148_1052"/>
<feBlend mode="normal" in="SourceGraphic" in2="effect1_dropShadow_148_1052" result="shape"/>
</filter>
</defs>
</svg>
