<svg width="137" height="40" viewBox="0 0 137 40" fill="none" xmlns="http://www.w3.org/2000/svg">
<rect width="137" height="40" rx="10" fill="#212121"/>
<path d="M17.5 20C17.5014 18.8069 17.9759 17.6631 18.8195 16.8195C19.6631 15.9758 20.807 15.5013 22 15.5H28.7932L28.1463 14.8537C28.0525 14.7599 27.9997 14.6327 27.9997 14.5C27.9997 14.3673 28.0525 14.24 28.1463 14.1462C28.2401 14.0524 28.3673 13.9997 28.5 13.9997C28.6327 13.9997 28.76 14.0524 28.8538 14.1462L30.3538 15.6462C30.4003 15.6927 30.4371 15.7478 30.4623 15.8085C30.4875 15.8692 30.5004 15.9343 30.5004 16C30.5004 16.0657 30.4875 16.1307 30.4623 16.1914C30.4371 16.2521 30.4003 16.3073 30.3538 16.3537L28.8538 17.8537C28.76 17.9475 28.6327 18.0003 28.5 18.0003C28.3673 18.0003 28.2401 17.9475 28.1463 17.8537C28.0525 17.7599 27.9997 17.6327 27.9997 17.5C27.9997 17.3673 28.0525 17.24 28.1463 17.1462L28.7932 16.5H22C21.0721 16.501 20.1824 16.87 19.5262 17.5262C18.8701 18.1824 18.501 19.072 18.5 20C18.5 20.1326 18.4473 20.2598 18.3536 20.3535C18.2598 20.4473 18.1326 20.5 18 20.5C17.8674 20.5 17.7402 20.4473 17.6465 20.3535C17.5527 20.2598 17.5 20.1326 17.5 20ZM30 19.5C29.8674 19.5 29.7402 19.5527 29.6465 19.6464C29.5527 19.7402 29.5 19.8674 29.5 20C29.499 20.9279 29.13 21.8176 28.4738 22.4738C27.8176 23.1299 26.928 23.499 26 23.5H19.2069L19.8538 22.8537C19.9002 22.8073 19.9371 22.7521 19.9622 22.6914C19.9874 22.6307 20.0003 22.5657 20.0003 22.5C20.0003 22.4343 19.9874 22.3692 19.9622 22.3085C19.9371 22.2478 19.9002 22.1927 19.8538 22.1462C19.8073 22.0998 19.7522 22.0629 19.6915 22.0378C19.6308 22.0126 19.5657 21.9997 19.5 21.9997C19.4343 21.9997 19.3693 22.0126 19.3086 22.0378C19.2479 22.0629 19.1927 22.0998 19.1463 22.1462L17.6463 23.6462C17.5998 23.6927 17.5629 23.7478 17.5377 23.8085C17.5126 23.8692 17.4996 23.9343 17.4996 24C17.4996 24.0657 17.5126 24.1307 17.5377 24.1914C17.5629 24.2521 17.5998 24.3073 17.6463 24.3537L19.1463 25.8537C19.1927 25.9002 19.2479 25.937 19.3086 25.9622C19.3693 25.9873 19.4343 26.0003 19.5 26.0003C19.5657 26.0003 19.6308 25.9873 19.6915 25.9622C19.7522 25.937 19.8073 25.9002 19.8538 25.8537C19.9002 25.8073 19.9371 25.7521 19.9622 25.6914C19.9874 25.6307 20.0003 25.5657 20.0003 25.5C20.0003 25.4343 19.9874 25.3692 19.9622 25.3085C19.9371 25.2478 19.9002 25.1927 19.8538 25.1462L19.2069 24.5H26C27.1931 24.4986 28.3369 24.0241 29.1805 23.1805C30.0242 22.3369 30.4987 21.193 30.5 20C30.5 19.8674 30.4473 19.7402 30.3536 19.6464C30.2598 19.5527 30.1326 19.5 30 19.5Z" fill="white"/>
<path d="M51.9941 13.9121V18.6562H53.9629V19.7227H51.9941V26.1895H50.6953V13.9121H51.9941ZM48.6992 15.0879V16.1406H44.2695V22.0605C46.3271 22.0537 47.8721 21.9648 49.6152 21.6504L49.7793 22.7441C47.8652 23.0859 46.2383 23.1543 43.9551 23.1406H42.9707V15.0879H48.6992ZM65.608 20.6387V21.6914H54.3971V20.6387H65.608ZM64.4596 24.8496V25.9023H55.86V22.5664H57.1588V24.8496H64.4596ZM64.1998 14.2812V17.4258H57.1178V18.6289H64.4459V19.627H55.8327V16.4824H62.901V15.3066H55.8053V14.2812H64.1998ZM76.8398 14.9238V15.9902H75.664V19.3535C76.2587 19.3193 76.8398 19.2578 77.4003 19.1895L77.4823 20.1602C74.9804 20.5703 72.0683 20.6113 70.0038 20.6113L69.8534 19.5449C70.3114 19.5449 70.8173 19.5449 71.3437 19.5312V15.9902H70.1816V14.9238H76.8398ZM79.8066 13.9258V21.3906H78.5077V13.9258H79.8066ZM75.7187 21.6504C78.3027 21.6504 79.8886 22.457 79.8886 23.8789C79.8886 25.3145 78.3027 26.1484 75.7187 26.1348C73.121 26.1484 71.5487 25.3145 71.5487 23.8789C71.5487 22.457 73.121 21.6504 75.7187 21.6504ZM75.7187 22.6484C73.9003 22.6484 72.8339 23.0996 72.8339 23.8789C72.8339 24.6855 73.9003 25.1367 75.7187 25.1367C77.537 25.1367 78.5898 24.6855 78.5898 23.8789C78.5898 23.0996 77.537 22.6484 75.7187 22.6484ZM72.5878 19.5039C73.1825 19.4971 73.8046 19.4766 74.4198 19.4355V15.9902H72.5878V19.5039ZM92.1353 13.9121V26.1621H90.9048V13.9121H92.1353ZM89.6334 14.2266V25.5605H88.4029V21.3906H86.3111V20.3242H88.4029V18.3281H86.5162C85.9214 20.3857 84.6158 22.1699 82.3052 23.5508L81.5396 22.6211C84.1373 21.0762 85.3882 19.0186 85.6138 16.4961H82.1412V15.4297H86.899C86.899 16.0586 86.8511 16.667 86.7486 17.2617H88.4029V14.2266H89.6334ZM108.056 23.5645V24.6445H96.8455V23.5645H101.781V21.0488H98.1307V14.7461H99.4295V16.8516H105.445V14.7461H106.73V21.0488H103.066V23.5645H108.056ZM99.4295 19.9961H105.445V17.9043H99.4295V19.9961ZM118.991 13.9121V26.1621H117.678V13.9121H118.991ZM115.34 15.2246C115.34 18.8066 113.809 21.9238 109.612 23.9336L108.928 22.8809C112.189 21.3291 113.775 19.1211 114.028 16.2637H109.516V15.2246H115.34Z" fill="white"/>
</svg>
