<svg width="16" height="16" viewBox="0 0 16 16" fill="none" xmlns="http://www.w3.org/2000/svg">
<path d="M1.50003 7.99997C1.50135 6.8069 1.97588 5.66308 2.81951 4.81945C3.66314 3.97583 4.80696 3.5013 6.00003 3.49997H12.7932L12.1463 2.85372C12.0525 2.7599 11.9997 2.63265 11.9997 2.49997C11.9997 2.36729 12.0525 2.24004 12.1463 2.14622C12.2401 2.0524 12.3673 1.99969 12.5 1.99969C12.6327 1.99969 12.76 2.0524 12.8538 2.14622L14.3538 3.64622C14.4003 3.69266 14.4371 3.7478 14.4623 3.8085C14.4875 3.8692 14.5004 3.93427 14.5004 3.99997C14.5004 4.06568 14.4875 4.13074 14.4623 4.19144C14.4371 4.25214 14.4003 4.30729 14.3538 4.35372L12.8538 5.85372C12.76 5.94754 12.6327 6.00025 12.5 6.00025C12.3673 6.00025 12.2401 5.94754 12.1463 5.85372C12.0525 5.7599 11.9997 5.63265 11.9997 5.49997C11.9997 5.36729 12.0525 5.24004 12.1463 5.14622L12.7932 4.49997H6.00003C5.07207 4.50097 4.18241 4.87003 3.52625 5.5262C2.87009 6.18236 2.50102 7.07202 2.50003 7.99997C2.50003 8.13258 2.44735 8.25976 2.35358 8.35353C2.25981 8.44729 2.13264 8.49997 2.00003 8.49997C1.86742 8.49997 1.74024 8.44729 1.64647 8.35353C1.55271 8.25976 1.50003 8.13258 1.50003 7.99997ZM14 7.49997C13.8674 7.49997 13.7402 7.55265 13.6465 7.64642C13.5527 7.74019 13.5 7.86736 13.5 7.99997C13.499 8.92793 13.13 9.81759 12.4738 10.4738C11.8176 11.1299 10.928 11.499 10 11.5H3.2069L3.85378 10.8537C3.90023 10.8073 3.93708 10.7521 3.96222 10.6914C3.98736 10.6307 4.00031 10.5657 4.00031 10.5C4.00031 10.4343 3.98736 10.3692 3.96222 10.3085C3.93708 10.2478 3.90023 10.1927 3.85378 10.1462C3.80732 10.0998 3.75217 10.0629 3.69148 10.0378C3.63078 10.0126 3.56572 9.99969 3.50003 9.99969C3.43433 9.99969 3.36928 10.0126 3.30858 10.0378C3.24788 10.0629 3.19273 10.0998 3.14628 10.1462L1.64628 11.6462C1.59979 11.6927 1.56291 11.7478 1.53775 11.8085C1.51258 11.8692 1.49963 11.9343 1.49963 12C1.49963 12.0657 1.51258 12.1307 1.53775 12.1914C1.56291 12.2521 1.59979 12.3073 1.64628 12.3537L3.14628 13.8537C3.19273 13.9002 3.24788 13.937 3.30858 13.9622C3.36928 13.9873 3.43433 14.0003 3.50003 14.0003C3.56572 14.0003 3.63078 13.9873 3.69148 13.9622C3.75217 13.937 3.80732 13.9002 3.85378 13.8537C3.90023 13.8073 3.93708 13.7521 3.96222 13.6914C3.98736 13.6307 4.00031 13.5657 4.00031 13.5C4.00031 13.4343 3.98736 13.3692 3.96222 13.3085C3.93708 13.2478 3.90023 13.1927 3.85378 13.1462L3.2069 12.5H10C11.1931 12.4986 12.3369 12.0241 13.1805 11.1805C14.0242 10.3369 14.4987 9.19304 14.5 7.99997C14.5 7.86736 14.4473 7.74019 14.3536 7.64642C14.2598 7.55265 14.1326 7.49997 14 7.49997Z" fill="white"/>
</svg>
